<?xml version="1.0" encoding="UTF-8"?>
<svg width="40px" height="37px" viewBox="0 0 40 37" version="1.1" xmlns="http://www.w3.org/2000/svg" xmlns:xlink="http://www.w3.org/1999/xlink">
    <!-- Generator: Sketch 48.2 (47327) - http://www.bohemiancoding.com/sketch -->
    <title>Group</title>
    <desc>Created with Sketch.</desc>
    <defs></defs>
    <g id="Page-1" stroke="none" stroke-width="1" fill="none" fill-rule="evenodd">
        <g id="Group">
            <polygon id="Star-2" stroke="#F5A623" fill="#F8E71C" points="20 30 8.24429495 36.1803399 10.4894348 23.0901699 0.978869674 13.8196601 14.1221475 11.9098301 20 0 25.8778525 11.9098301 39.0211303 13.8196601 29.5105652 23.0901699 31.755705 36.1803399"></polygon>
            <path d="M20.4374834,12.5 C16.4290929,12.5 13.4062473,15.2745551 13.4062473,18.9535616 C13.4062473,20.1551121 13.8688147,22.856425 13.8885022,22.9708584 C13.9654063,23.4166974 14.3496927,23.7442066 14.8022113,23.7492457 C16.1101678,23.7635131 16.2139957,24.1552409 16.2187711,24.5661874 L16.2187711,26.2774731 C16.2187711,26.7402457 16.5565927,27.1339069 17.0141211,27.2041607 C17.0412499,27.2082916 17.2757124,27.2437114 17.6250183,27.2889164 L17.6250183,26.5724921 C17.6250183,26.3136547 17.8349007,26.1037722 18.0937674,26.1037722 C18.3526341,26.1037722 18.5625165,26.3136547 18.5625165,26.5724921 L18.5625165,27.3972853 C19.0094687,27.4426369 19.5010986,27.4824219 19.9687638,27.5 L19.9687638,26.5724921 C19.9687638,26.3136547 20.1786462,26.1037722 20.4375128,26.1037722 C20.6963795,26.1037722 20.9062619,26.3136547 20.9062619,26.5724921 L20.9062619,27.499004 C21.3607141,27.4802247 21.8573538,27.4388283 22.3125091,27.3925393 L22.3125091,26.5725214 C22.3125091,26.313684 22.5223916,26.1038016 22.7812583,26.1038016 C23.040125,26.1038016 23.2500074,26.313684 23.2500074,26.5725214 L23.2500074,27.2856938 C23.5931902,27.2425981 23.8254262,27.2093169 23.8531116,27.2053326 C24.3142728,27.1384479 24.6562253,26.7432047 24.6562253,26.2774438 L24.6562253,24.6617536 C24.6476121,24.247145 24.792104,24.1012762 24.8397991,24.0533759 C25.0467226,23.8457786 25.4710578,23.7386695 26.0439569,23.7489819 C26.5079014,23.7720971 26.9079786,23.42742 26.9864941,22.9708291 C27.0061524,22.856425 27.4687198,20.1551121 27.4687198,18.9535616 C27.4687198,15.2745551 24.4458741,12.5 20.4374834,12.5 Z M18.0937381,20.9369269 C17.3170502,20.9369269 16.6874908,20.3248871 16.6874908,19.5698202 C16.6874908,18.8147533 17.3170502,18.5933279 18.0937381,18.5933279 C18.870426,18.5933279 19.4999853,18.8147533 19.4999853,19.5698202 C19.4999853,20.3248871 18.870426,20.9369269 18.0937381,20.9369269 Z M21.7203619,22.6717379 C21.6315633,22.81456 21.4786631,22.893046 21.3218666,22.893046 C21.2374038,22.893046 21.1517986,22.8703997 21.0748943,22.8223236 L20.4374834,22.4261428 L19.8000434,22.8223236 C19.5798484,22.958964 19.2910112,22.8912003 19.1546052,22.6717379 C19.0179648,22.452041 19.0852596,22.1629695 19.3052201,22.026329 L20.1900719,21.4763691 C20.341595,21.3820921 20.5334014,21.3820921 20.6849245,21.4763691 L21.5697762,22.026329 C21.7897074,22.1629402 21.8570022,22.4520119 21.7203619,22.6717379 Z M22.781229,20.9369269 C22.004541,20.9369269 21.3749817,20.3248871 21.3749817,19.5698202 C21.3749817,18.8147533 22.004541,18.5933279 22.781229,18.5933279 C23.5579169,18.5933279 24.1874762,18.8147533 24.1874762,19.5698202 C24.1874762,20.3248871 23.5579169,20.9369269 22.781229,20.9369269 Z" id="Shape" fill="#F5A623" fill-rule="nonzero"></path>
        </g>
    </g>
</svg>