<?xml version="1.0" encoding="UTF-8"?>
<svg width="223px" height="212px" viewBox="0 0 223 212" version="1.1" xmlns="http://www.w3.org/2000/svg" xmlns:xlink="http://www.w3.org/1999/xlink">
    <!-- Generator: Sketch 48.2 (47327) - http://www.bohemiancoding.com/sketch -->
    <title>Star</title>
    <desc>Created with Sketch.</desc>
    <defs></defs>
    <g id="Page-1" stroke="none" stroke-width="1" fill="none" fill-rule="evenodd">
        <g id="Star" transform="translate(6.000000, 6.000000)">
            <polygon stroke="#F5A623" stroke-width="5" fill="#FBE801" points="105.671954 166.665101 40.3630946 201 52.8359768 128.277517 -2.7533531e-14 76.7751683 73.0175241 66.165101 105.671954 0 138.326383 66.165101 211.343907 76.7751683 158.50793 128.277517 170.980812 201"></polygon>
            <path d="M105.874908,69.5 C82.6262429,69.5 65.0937381,85.5924197 65.0937381,106.930657 C65.0937381,113.89965 67.7766293,129.567265 67.8908166,130.230979 C68.3368607,132.816845 70.5657216,134.716398 73.1903297,134.745625 C80.776477,134.828376 81.3786789,137.100397 81.4063762,139.483887 L81.4063762,149.409344 C81.4063762,152.093425 83.3657415,154.37666 86.0194062,154.784132 C86.1767536,154.808091 87.5366357,155.013526 89.5626102,155.275715 L89.5626102,151.120454 C89.5626102,149.619197 90.7799282,148.401879 92.2813549,148.401879 C93.7827817,148.401879 95.0000996,149.619197 95.0000996,151.120454 L95.0000996,155.904255 C97.5924227,156.167294 100.443876,156.398047 103.156334,156.5 L103.156334,151.120454 C103.156334,149.619197 104.373652,148.401879 105.875078,148.401879 C107.376505,148.401879 108.593823,149.619197 108.593823,151.120454 L108.593823,156.494223 C111.229646,156.385303 114.110156,156.145204 116.750057,155.876728 L116.750057,151.120624 C116.750057,149.619367 117.967375,148.402049 119.468802,148.402049 C120.970229,148.402049 122.187547,149.619367 122.187547,151.120624 L122.187547,155.257024 C124.178007,155.007069 125.524976,154.814038 125.685551,154.790929 C128.360286,154.402998 130.343611,152.110587 130.343611,149.409174 L130.343611,140.038171 C130.293654,137.633441 131.131707,136.787402 131.408339,136.50958 C132.608495,135.305516 135.069639,134.684283 138.392454,134.744095 C141.083332,134.878163 143.40378,132.879036 143.85917,130.230809 C143.973188,129.567265 146.656079,113.89965 146.656079,106.930657 C146.656079,85.5924197 129.123574,69.5 105.874908,69.5 Z M92.281185,118.434176 C87.776395,118.434176 84.1249509,114.884345 84.1249509,110.504957 C84.1249509,106.125569 87.776395,104.841302 92.281185,104.841302 C96.785975,104.841302 100.437419,106.125569 100.437419,110.504957 C100.437419,114.884345 96.785975,118.434176 92.281185,118.434176 Z M113.315603,128.49608 C112.800571,129.324448 111.91375,129.779667 111.00433,129.779667 C110.514446,129.779667 110.017936,129.648318 109.571891,129.369477 L105.874908,127.071628 L102.177756,129.369477 C100.900625,130.161991 99.2253687,129.768962 98.434214,128.49608 C97.6416999,127.221838 98.0320097,125.545223 99.3077806,124.752708 L104.439921,121.562941 C105.318755,121.016134 106.431232,121.016134 107.310066,121.562941 L112.442206,124.752708 C113.717807,125.545053 114.108117,127.221669 113.315603,128.49608 Z M119.468632,118.434176 C114.963842,118.434176 111.312398,114.884345 111.312398,110.504957 C111.312398,106.125569 114.963842,104.841302 119.468632,104.841302 C123.973422,104.841302 127.624866,106.125569 127.624866,110.504957 C127.624866,114.884345 123.973422,118.434176 119.468632,118.434176 Z" id="Shape" fill="#F5A623" fill-rule="nonzero"></path>
        </g>
    </g>
</svg>