<svg xmlns="http://www.w3.org/2000/svg" viewBox="0 0 499.02 144.75"><defs><style>.cls-1{fill:#ba3e00;}</style></defs><title>logga</title><g id="Full_logo" data-name="Full logo"><path d="M446.5,78.72c-5.49-1.76-11.27-3.6-17-5.48A4.94,4.94,0,0,1,426,66.87c.71-2.58,3.22-4,6.22-3.28,2.85.7,5.64,1.66,8.46,2.52l9,2.75c2.26.7,4.24,1.68,5.11,3.94a4.66,4.66,0,0,1-.78,4.68,5,5,0,0,1-5.12,1.79C448.14,79.15,447.47,79,446.5,78.72Z"/><path d="M452.43,54.24c-1.18-.39-2.23-.92-3.72-1.32s-3-1-4.61-1.46c-3.24-.86-6.4-2-9.57-3.11a5.19,5.19,0,0,1-3-4.39c.14-4.62,4.3-5.94,8-4.68,7.13,2.41,11.25,3.56,16.7,5.3,2,.63,3.67,1.63,4.33,3.63,1.33,4.08-2.17,7.27-6.26,6.48C453.72,54.57,453.15,54.41,452.43,54.24Z"/><path d="M450.77,56a39.35,39.35,0,0,1,4.7,1.79,4.38,4.38,0,0,1,2.29,5.44c-.48,3.11-4.24,4.43-7.35,3.42-5.9-1.93-11.82-3.8-17.74-5.67a5.23,5.23,0,0,1-3.61-7c.87-2.4,4.21-3.6,7.06-2.66,3.35,1.1,6.75,2.08,10.13,3.12a2.46,2.46,0,0,1,.9.32"/><path d="M434.48,17c2.56,4.32,3.58,5.69,6.23,9.68a6.52,6.52,0,0,1,.93,6.33,27.87,27.87,0,0,0-.83,3.36c-1.61.11-3.08.26-4.56.27a1.73,1.73,0,0,1-1.11-.79c-3.33-5.54-5.12-7.75-8.46-13.28-.51-.84-1-2.49-.08-2.88C429.09,18.64,431.88,18.21,434.48,17Z"/><path d="M0,80.12H15.47L28.14,116,41.77,80.12h9.47l13.39,35.44L77.31,80.12H92.88l-23,63h-10L46.44,107.22,32.6,143.13H22.7Z"/><path d="M165,116.2H114.17A16.88,16.88,0,0,0,120,126.88q4.78,4,12.19,4a21,21,0,0,0,15.23-6.2l13.32,6.26a31.39,31.39,0,0,1-11.93,10.45,37.26,37.26,0,0,1-16.5,3.39q-14.82,0-24.15-9.35T98.88,112q0-14.41,9.29-23.94t23.31-9.53q14.88,0,24.21,9.53T165,113.19Zm-15.81-12.45A15.82,15.82,0,0,0,143,95.18a17.9,17.9,0,0,0-10.7-3.3,18.87,18.87,0,0,0-11.6,3.71q-3.14,2.31-5.8,8.16Z"/><path d="M193.44,55.8V87.07a29.93,29.93,0,0,1,9.27-6.43,26.8,26.8,0,0,1,10.65-2.14,27.54,27.54,0,0,1,21,9.32Q243,97.15,243,111.74q0,14.07-8.91,23.54t-21.14,9.47a26.26,26.26,0,0,1-10.13-1.94,30.91,30.91,0,0,1-9.33-6.34v6.66H177.75V55.8Zm16.62,37.29a16.49,16.49,0,0,0-12.39,5.1q-4.92,5.1-4.92,13.32,0,8.4,4.92,13.58a16.38,16.38,0,0,0,12.39,5.18A16.07,16.07,0,0,0,222.25,125a18.83,18.83,0,0,0,4.95-13.43q0-8.11-4.86-13.29A16.11,16.11,0,0,0,210.06,93.09Z"/><path d="M256.16,55.8H272v50.3l23.28-26H315.1L288,110.32l30.38,32.81H298.72l-26.75-29v29H256.16Z"/><path d="M324.84,80.12h15.81v6.46a38.16,38.16,0,0,1,9.74-6.31,23.58,23.58,0,0,1,8.93-1.77A21.61,21.61,0,0,1,375.22,85q5.5,5.56,5.5,16.45v41.64H365.08V115.54q0-11.28-1-15a10.25,10.25,0,0,0-3.52-5.64A9.84,9.84,0,0,0,354.34,93a11.67,11.67,0,0,0-8.24,3.21,17.1,17.1,0,0,0-4.76,8.88c-.46,2-.69,6.23-.69,12.78v25.28H324.84Z"/><path class="cls-1" d="M425.6,78.5A33.42,33.42,0,0,1,442.36,83,32.68,32.68,0,0,1,459,111.57a33.16,33.16,0,0,1-4.43,16.68,32,32,0,0,1-12.08,12.13,33.36,33.36,0,0,1-16.85,4.37,31.45,31.45,0,0,1-23.13-9.64,32,32,0,0,1-9.58-23.43A33,33,0,0,1,425.6,78.5Zm.26,14.88a16.27,16.27,0,0,0-12.27,5.13,18.19,18.19,0,0,0-4.9,13.12q0,8.22,4.84,13.31A16.2,16.2,0,0,0,425.8,130a16.38,16.38,0,0,0,12.35-5.15q4.94-5.16,4.93-13.26t-4.84-13.18A16.38,16.38,0,0,0,425.86,93.38Z"/><path d="M473.83,56.9h15.81V80.12H499V93.73h-9.38v49.4H473.83V93.73h-8.1V80.12h8.1Z"/><rect x="443.9" width="10.59" height="37.88" rx="3.06" ry="3.06"/></g></svg>