<?xml version="1.0" encoding="UTF-8"?>
<svg width="240px" height="548px" viewBox="0 0 240 548" version="1.1" xmlns="http://www.w3.org/2000/svg" xmlns:xlink="http://www.w3.org/1999/xlink">
    <!-- Generator: Sketch 48.1 (47250) - http://www.bohemiancoding.com/sketch -->
    <title>Webknot logo</title>
    <desc>Created with Sketch.</desc>
    <defs>
        <polyline id="path-1" points="50 185 110 170 50 200 110 185 50 215 110 200 50 230 110 215 50 245 110 230 50 260 110 245"></polyline>
        <radialGradient cx="50%" cy="16.4540955%" fx="50%" fy="16.4540955%" r="225.07443%" id="radialGradient-2">
            <stop stop-color="#00ABFF" offset="0%"></stop>
            <stop stop-color="#000000" offset="100%"></stop>
        </radialGradient>
        <path d="M191.771402,169.958608 C192.42333,173.311383 192.259643,177.426152 190.786453,180.491063 C190.001881,182.116651 186.914393,187.478833 185.568203,188.412982 C180.795861,191.765757 181.639699,186.982126 182.568203,183.956726 C183.253998,181.738476 183.688617,177.214487 184.981185,175.39699 C186.660395,173.043274 189.80715,172.546566 191.771402,169.958608 Z M110.475071,46.1119473 C110.407338,45.6491063 107.125118,41.0517404 106.65381,40.0667921 C105.968015,38.678269 105.019755,37.4675447 104.35936,36.0818438 L103.823142,34.7328316 C103.913452,35.0348071 104.017874,35.3254939 104.133584,35.6105362 C104.215428,35.7488241 104.285983,35.8955786 104.350894,36.056444 C104.285983,35.9125118 104.19285,35.7657573 104.133584,35.6105362 C103.049859,33.7365945 100.817498,34.2276576 99.6603951,36.1354657 C97.6933208,39.3725306 100.817498,38.9971778 101.441204,41.0968956 C102.98777,46.303857 98.6274694,47.943556 98.7939793,52.3264346 C101.966134,51.5164628 111.095955,50.3904045 110.475071,46.1119473 Z M96.9059266,41.9520226 C96.3697084,41.7403575 95.8532455,41.6331138 95.3113829,41.5992474 L95.4496707,41.5992474 C95.3678269,41.5964252 95.2916275,41.593603 95.2097836,41.5907808 C95.1787394,41.5907808 95.1505174,41.5907808 95.1194732,41.5907808 C95.1194732,41.5907808 95.1110066,41.5907808 95.0968956,41.5907808 C94.9219191,41.5879586 94.738476,41.5879586 94.5578551,41.5992474 L94.8824083,41.5992474 C91.639699,41.8278457 90.2201317,46.2163688 90.4176858,49.3236124 C94.5183443,47.6895579 96.9708373,47.0658514 96.9059266,41.9520226 Z M240,120 C240,186.160865 186.172154,240 120,240 C53.8391345,240 0,186.160865 0,120 C0,53.8334901 53.8391345,0 120,0 C186.169332,0 240,53.8334901 240,120 Z M192.522107,80.3142051 C194.477893,84.2455315 198.790216,83.7121355 199.741298,80.1646284 C200.534337,77.201317 198.005644,73.8795861 197.283161,71.4355597 C196.456256,68.6472248 197.881468,63.5813735 193.772342,63.7196613 L195.273754,63.1213547 C189.660395,63.4741298 188.401693,64.8513641 190.159925,69.5785513 C190.834431,71.4186265 192.152399,72.5587959 192.533396,74.6274694 C192.866416,76.3998119 191.678269,78.6180621 192.522107,80.3142051 Z M175.498589,58.9501411 C171.222954,61.7300094 169.238946,59.2323612 164.9492,59.4440263 C159.852305,59.6867357 155.07714,68.2803387 161.480715,70.5352775 C164.940734,71.7544685 183.045155,73.5578551 180.318909,68.7996237 L180.0254,69.098777 C178.622766,67.4675447 177.685795,66.7253057 177.135466,64.8936971 C176.449671,62.6302916 179.968956,60.841016 175.498589,58.9501411 Z M228.719661,124.317968 C228.352775,126.939793 227.785513,129.426152 226.095014,131.221072 C226.171214,126.654751 224.254939,120.437441 223.560677,115.715898 C222.776105,110.381938 217.978363,110.125118 216.736595,104.700847 C212.108184,103.817498 199.450611,103.577611 199.103481,96.939793 C196.687676,96.084666 195.572907,93.6886171 192.917215,93.6462841 C192.505174,99.2427093 197.01223,106.521167 202.738476,103.588899 C204.143932,104.802446 209.238006,107.418627 209.43556,109.467545 C209.64158,111.801505 204.936971,114.784572 203.096896,116.260583 C199.617121,119.060207 191.644403,125.108184 187.244591,124.919097 C185.9492,119.226717 181.600188,114.708373 179.754468,108.976482 C177.778928,102.826905 175.109125,99.9595484 171.129821,95.130762 C167.875823,99.8438382 172.298213,105.234243 174.118532,109.84572 C175.975541,114.555974 178.210724,121.405456 181.995296,124.70461 C183.979304,126.440263 186.310442,127.825964 188.396049,129.790216 C198.70555,124.727187 198.89746,133.634055 194.150517,141.158043 C192.290687,144.110066 190.594544,144.587018 187.4873,146.260583 C183.493885,148.402634 183.567262,149.424271 181.394167,153.211665 C177.812794,159.457197 177.366886,161.116651 178.62841,168.502352 C180.09031,177.002822 175.095014,175.25588 170.746002,180.804327 C167.920978,184.408278 167.175917,192.815616 162.993415,199.388523 C157.913452,203.274694 146.175917,209.164628 141.78175,208.354657 C134.579492,207.031044 130.233302,186.733772 130.176858,179.031985 C130.095014,169.126058 136.467545,166.109125 128.356538,157.690499 C125.091251,154.286924 125.187206,152.805268 125.173095,148.523989 C125.144873,143.057385 124.286924,142.941675 119.091251,141.493885 C108.691439,138.603951 99.5362183,139.492944 89.1787394,140.401693 C82.8005644,134.523048 75.784572,125.926623 76.8880527,116.796802 C73.696143,110.805268 76.4054563,104.362183 81.056444,100.185325 C85.5634995,96.1439323 87.6999059,90.1806209 92.5907808,86.8730009 C97.8654751,83.2944497 103.078081,83.0489182 108.965193,81.5475071 C114.338664,80.187206 121.741298,74.4976482 126.677328,79.8852305 C129.206021,82.6481656 128.328316,85.1514581 131.9746,87.3245532 C134.777046,88.9896519 138.996237,88.7328316 139.086548,93 L139.086548,93.2991533 C144.016933,91.5945437 146.006585,87.0479774 151.608655,87.7394167 C156.668862,88.3631232 164.760113,92.8984008 169.888053,89.635936 C173.288805,87.4741298 170.590781,83.5879586 173.723424,81.1072437 C170.33396,79.7441204 163.165569,79.5493885 159.519285,79.8795861 C159.485419,80.2605833 159.708373,80.8278457 159.716839,81.2483537 C157.732832,79.0498589 158.082785,73.6227658 155.841957,71.957667 C150.476952,67.9840075 152.096896,74.7939793 151.027281,76.5465663 C147.251176,82.7300094 143.254939,68.8447789 140.277516,66.1862653 C137.740357,63.9059266 134.249294,61.1514581 130.763876,61.0696143 C130.611477,64.5014111 137.212606,72.2173095 140.585136,72.084666 C136.998119,73.2784572 136.98683,76.1063029 133.588899,75.911571 C135.251176,72.1919097 130.952963,65.6190028 126.248354,64.3264346 C119.539981,62.4722484 112.560677,65.9407338 108.903104,71.1194732 C105.445908,76.0159925 101.113829,81.098777 94.4167451,79.0188147 C87.8635936,76.9868297 88.8965193,65.8278457 94.738476,64.0696143 C97.8174976,63.1411101 105.197554,67.0442145 106.100659,61.4393227 C106.631232,58.1994356 101.847601,56.201317 99.9736595,54.2060207 C105.801505,54.1834431 110.85889,51.4571966 115.696143,48.4233302 C117.160865,47.5117592 121.399812,45.4543744 122.331138,44.3311383 C124.210724,42.0310442 122.003763,37.7610536 125.954845,37.4590781 C126.194732,44.201317 131.46096,44.1815616 137.074318,43.6904986 C143.254939,43.1514581 143.751646,39.7591722 148.422389,36.5841957 C150.646284,35.0714958 153.310442,34.6340546 156.112888,34.4308561 L155.816557,34.7356538 C156.296331,34.317968 156.725306,34.0752587 156.990593,33.5898401 C153.321731,32.2126058 143.206961,34.4760113 144.465663,28.4054563 C144.58984,27.8071496 150.945437,24.6942615 146.839135,22.7892756 C145.134525,22.0018815 141.189087,26.1815616 138.245532,25.8118532 C138.420508,29.4383819 138.886171,42.5305738 131.69238,39.6152399 C129.152399,38.5851364 129.234243,35.046096 126.149577,34.0837253 C123.668862,33.3104421 118.696143,36.1269991 117.56444,32.4976482 C116.29445,28.4139229 130.08937,21.9651929 133.086548,19.8287865 C137.892756,16.3969897 145.727187,15.2681091 151.492944,16.780809 C155.342427,17.7883349 158.723424,20.1505174 162.581373,21.2511759 C165.888993,22.1994356 168.369708,22.3095014 170.757291,25.1683913 L170.46096,25.1683913 C169.571966,26.6810913 163.464722,25.7892756 161.548448,24.9087488 C165.609595,30.2850423 170.926623,27.4938852 176.64158,27.1354657 C160.137347,17.0263405 140.737535,11.1928504 120,11.1928504 C106.453434,11.1928504 93.4656632,13.6876764 81.4882408,18.2398871 C81.3866416,18.3753528 81.2793979,18.5136406 81.1580433,18.6519285 C79.4929445,20.5484478 76.5352775,20.3847601 74.480715,21.9313264 C70.2671684,25.0921919 65.5597366,30.042333 61.9868297,34.2107244 C60.3414864,36.1354657 58.5522107,40.7892756 56.4637817,41.9322672 C55.0272813,42.7281279 47.3170273,42.7478833 46.0470367,41.8673565 C45.6942615,41.6274694 45.4233302,41.3537159 45.2003763,41.0517404 C39.6688617,46.3010348 34.6848542,52.1232361 30.3527752,58.4252117 C32.1110066,60.9962371 33.6970837,63.6603951 33.6095955,66.2144873 C33.4374412,71.7968015 28.8739417,72.8071496 23.5428034,73.5550329 C27.8353716,79.7271872 20.8306679,82.7723424 17.6190028,88.0188147 C14.5823142,92.9633114 14.1787394,99.1241769 12.321731,104.379116 C11.5823142,109.484478 11.1984948,114.691439 11.1984948,120 C11.1984948,128.178739 12.1072437,136.157103 13.8287865,143.822201 C14.8645343,145.176858 16.0893697,146.523048 17.6754468,148.044214 C21.8607714,152.074318 27.7196613,154.140169 30.8466604,159.067733 C34.8908749,165.457197 37.2587018,167.698024 43.7582314,171.651929 C47.9548448,174.211665 55.8965193,177 54.869238,182.508937 C54.4515522,184.758231 52.3405456,186.66604 51.7394167,188.957667 C51.1608655,191.144873 52.6199436,195.654751 51.6660395,197.297272 C50.4214487,199.430856 47.7318909,198.321731 45.8325494,199.532455 C65.2803387,217.682032 91.3659454,228.809972 120,228.809972 C178.549389,228.809972 226.439323,182.325494 228.719661,124.317968 Z" id="path-3"></path>
    </defs>
    <g id="Page-1" stroke="none" stroke-width="1" fill="none" fill-rule="evenodd">
        <g id="rope" transform="translate(40.000000, 13.000000)" stroke-linecap="round" stroke-linejoin="round">
            <path d="M80,0 C80,133.360867 80,206.478514 80,219.352941 C80,232.227369 53.3333333,272.109722 0,339" id="rope-left" stroke="#000000" stroke-width="20"></path>
            <path d="M103.412439,72.8048056 C183.412439,152.684934 155.158471,207.75027 155.158471,220.352941 C155.158471,233.227369 128.491804,273.109722 75.1584709,340" id="rope-right" stroke="#000000" stroke-width="20" transform="translate(117.579235, 206.402403) scale(-1, 1) translate(-117.579235, -206.402403) "></path>
            <g id="curled-rope">
                <use stroke="#FFFFFF" stroke-width="16" xlink:href="#path-1"></use>
                <use stroke="#000000" stroke-width="12" xlink:href="#path-1"></use>
            </g>
        </g>
        <circle id="Path" fill="url(#radialGradient-2)" cx="120" cy="428" r="120"></circle>
        <g id="earth" transform="translate(0.000000, 308.000000)" fill-rule="nonzero">
            <g id="Shape">
                <use fill="#D0021B" fill-rule="evenodd" xlink:href="#path-3"></use>
                <use fill="#000000" fill-rule="evenodd" xlink:href="#path-3"></use>
            </g>
        </g>
    </g>
</svg>