<svg id="Simple_logo" data-name="Simple logo" xmlns="http://www.w3.org/2000/svg" viewBox="0 0 67.92 144.75"><defs><style>.cls-1{fill:#d80303;}</style></defs><title>Rityta 2</title><path d="M53.57,78.72c-5.49-1.76-11.28-3.6-17-5.48A5,5,0,0,1,33,66.87c.71-2.58,3.22-4,6.22-3.28s5.65,1.66,8.47,2.52l9,2.75c2.27.7,4.25,1.68,5.11,3.94A4.64,4.64,0,0,1,61,77.48a5,5,0,0,1-5.12,1.79C55.21,79.15,54.54,79,53.57,78.72Z"/><path d="M59.5,54.24c-1.19-.39-2.23-.92-3.73-1.32s-3-1-4.6-1.46c-3.24-.86-6.41-2-9.58-3.11a5.21,5.21,0,0,1-3-4.39c.15-4.62,4.3-5.94,8-4.68,7.12,2.41,11.24,3.56,16.69,5.3,2,.63,3.68,1.63,4.33,3.63,1.33,4.08-2.17,7.27-6.26,6.48C60.79,54.57,60.21,54.41,59.5,54.24Z"/><path d="M57.83,56a38.08,38.08,0,0,1,4.7,1.79,4.38,4.38,0,0,1,2.29,5.44c-.48,3.11-4.24,4.43-7.35,3.42-5.9-1.93-11.82-3.8-17.74-5.67a5.23,5.23,0,0,1-3.61-7c.87-2.4,4.21-3.6,7.07-2.66,3.35,1.1,6.74,2.08,10.12,3.12a2.4,2.4,0,0,1,.9.32"/><path d="M41.54,17c2.56,4.32,3.58,5.69,6.23,9.68A6.52,6.52,0,0,1,48.7,33a29.89,29.89,0,0,0-.83,3.36c-1.61.11-3.08.26-4.56.27a1.71,1.71,0,0,1-1.1-.79c-3.33-5.54-5.12-7.75-8.47-13.28-.5-.84-1-2.49-.07-2.88C36.15,18.64,38.94,18.21,41.54,17Z"/><path class="cls-1" d="M32.66,78.5A33.42,33.42,0,0,1,49.42,83a32.68,32.68,0,0,1,16.65,28.61,33.06,33.06,0,0,1-4.43,16.68,32,32,0,0,1-12.07,12.13,33.39,33.39,0,0,1-16.85,4.37,31.46,31.46,0,0,1-23.14-9.64A32,32,0,0,1,0,111.68,31.89,31.89,0,0,1,10.83,87.07,31.65,31.65,0,0,1,32.66,78.5Zm.26,14.88a16.27,16.27,0,0,0-12.27,5.13,18.19,18.19,0,0,0-4.9,13.12q0,8.22,4.84,13.31A16.2,16.2,0,0,0,32.86,130a16.42,16.42,0,0,0,12.36-5.15q4.92-5.16,4.93-13.26T45.3,98.45A16.35,16.35,0,0,0,32.92,93.38Z"/><rect x="50.96" width="10.59" height="37.88" rx="3.06" ry="3.06"/></svg>